<!--?xml version="1.0" encoding="utf-8"?-->
<!-- Generator: Adobe Illustrator 22.0.0, SVG Export Plug-In . SVG Version: 6.00 Build 0)  -->
<svg version="1.1" id="Layer_1" xmlns="http://www.w3.org/2000/svg" xmlns:xlink="http://www.w3.org/1999/xlink" x="0px" y="0px" viewBox="0 0 144 144" style="" xml:space="preserve">
<style type="text/css">
	.st0{fill:none;stroke:#fff;stroke-width:6;stroke-miterlimit:10;}
	.st1{opacity:0.4;}
</style>
<g>
	<path class="st0 rNJZtamf_0" id="acc1" d="M31.8,140.3c-4.8-0.1-30.3,0-30.3,0S41.6,23.6,43.1,20c3.6-8.9,11.3-16.2,18.7-16.2c4.9,0,10.8-0.2,18.2-0.2
		c11,0,14,6.2,14,6.2s-4.1,0.8-6.9,8.6C76.5,48.7,50.6,122.7,49.9,124.3C47.9,129.8,42.3,140.5,31.8,140.3z"></path>
	<g class="st1">
		<path class="st0 rNJZtamf_1" id="acc2" d="M89.8,13.1c-2.1,4.8-4.1,9.8-6.1,15c-4.4,11.2-8.1,22.1-11.4,32.5c10.2,29.2,30.5,79.8,30.5,79.8
			s23.7,0,27.9,0c4.2,0,12.5-9.6,7.7-22.4C121.7,73.5,96.9,22.6,95.5,12.9c-0.1-0.4-0.3-2.7-1.5-3.1C92.8,9.4,91.2,11.3,89.8,13.1z"></path>
	</g>
	<path class="st0 rNJZtamf_2" id="acc3" d="M129.2,140.2c0,0-3-2.5-6.2-7.8c-4.3-7.2-9.3-19.1-14-26.3c-4.3-6.6-7.9-9.3-14.4-9.3s-30.7,0.3-30.7,0.3
		s15.2,33.3,20.5,38.1c5.4,4.8,10.4,5.1,15.2,5.1C104.5,140.2,129.2,140.2,129.2,140.2z"></path>
</g>
<style data-made-with="vivus-instant">.rNJZtamf_0{stroke-dasharray:368 370;stroke-dashoffset:369;animation:rNJZtamf_draw_0 13200ms linear 0ms infinite,rNJZtamf_fade 13200ms linear 0ms infinite;}.rNJZtamf_1{stroke-dasharray:314 316;stroke-dashoffset:315;animation:rNJZtamf_draw_1 13200ms linear 0ms infinite,rNJZtamf_fade 13200ms linear 0ms infinite;}.rNJZtamf_2{stroke-dasharray:179 181;stroke-dashoffset:180;animation:rNJZtamf_draw_2 13200ms linear 0ms infinite,rNJZtamf_fade 13200ms linear 0ms infinite;}@keyframes rNJZtamf_draw{100%{stroke-dashoffset:0;}}@keyframes rNJZtamf_fade{0%{stroke-opacity:1;}96.96969696969697%{stroke-opacity:1;}100%{stroke-opacity:0;}}@keyframes rNJZtamf_draw_0{6.0606060606060606%{stroke-dashoffset: 369}12.531565656565654%{ stroke-dashoffset: 0;}100%{ stroke-dashoffset: 0;}}@keyframes rNJZtamf_draw_1{12.531565656565654%{stroke-dashoffset: 315}18.055555555555554%{ stroke-dashoffset: 0;}100%{ stroke-dashoffset: 0;}}@keyframes rNJZtamf_draw_2{18.055555555555554%{stroke-dashoffset: 180}21.21212121212121%{ stroke-dashoffset: 0;}100%{ stroke-dashoffset: 0;}}</style></svg>
